<svg xmlns="http://www.w3.org/2000/svg" viewBox="0 0 240.67 269.57"><defs><style>.cls-1{fill:#5c5c5c;}.cls-2,.cls-4,.cls-5,.cls-6{fill:none;}.cls-2{stroke:#5c5c5c;stroke-width:11.9px;}.cls-2,.cls-6{stroke-linecap:round;}.cls-2,.cls-4{stroke-linejoin:round;}.cls-3{fill:#fff;}.cls-4,.cls-5,.cls-6{stroke:#000;stroke-width:11.3px;}</style></defs><title>Asset 5</title><g id="Layer_2" data-name="Layer 2"><g id="Layer_1-2" data-name="Layer 1"><path class="cls-1" d="M120.33,32.65c-23.77,1.37-21.71,34,0,34.66,23.77-1.36,21.72-34,0-34.66Zm0,34.66C44.08,95.05,47.54,164.38,85.67,174.78c0,0-17.33,10.4-17.33,27.73-18.72,37.21,124.36,34.93,104,0,0-17.33-17.33-27.73-17.33-27.73,38.13-10.4,41.59-79.73-34.67-107.47Zm0,162.94C80.26,254.47,28.67,226.05,6,258c4.69,6.74,11.41,6.83,20.8,3.47,23.46-6.75,70.12,3.17,93.58-6.94,23.47,10.11,70.12.19,93.59,6.94,9.39,3.36,16.11,3.27,20.8-3.47-32-32.93-78.05-3.8-114.39-27.73Z"/><path class="cls-2" d="M120.33,32.65c-23.77,1.37-21.71,34,0,34.66,23.77-1.36,21.72-34,0-34.66Zm0,34.66C44.08,95.05,47.54,164.38,85.67,174.78c0,0-17.33,10.4-17.33,27.73-18.72,37.21,124.36,34.93,104,0,0-17.33-17.33-27.73-17.33-27.73,38.13-10.4,41.59-79.73-34.67-107.47Zm0,162.94C80.26,254.47,28.67,226.05,6,258c4.69,6.74,11.41,6.83,20.8,3.47,23.46-6.75,70.12,3.17,93.58-6.94,23.47,10.11,70.12.19,93.59,6.94,9.39,3.36,16.11,3.27,20.8-3.47-32-32.93-78.05-3.8-114.39-27.73Z"/><path class="cls-3" d="M26.75,217.11c23.46-6.74,70.12,3,93.58-13.86,23.47,16.85,70.13,7.12,93.59,13.86A55.35,55.35,0,0,1,234.72,231c-4.69,6.74-11.41,6.83-20.8,3.47-23.46-6.74-70.12,3.17-93.59-6.94-23.46,10.11-70.12.2-93.58,6.94C17.36,237.81,10.64,237.72,6,231c9.39-13.48,20.8-13.87,20.8-13.87Z"/><path class="cls-4" d="M26.75,217.11c23.46-6.74,70.12,3,93.58-13.86,23.47,16.85,70.13,7.12,93.59,13.86A55.35,55.35,0,0,1,234.72,231c-4.69,6.74-11.41,6.83-20.8,3.47-23.46-6.74-70.12,3.17-93.59-6.94-23.46,10.11-70.12.2-93.58,6.94C17.36,237.81,10.64,237.72,6,231c9.39-13.48,20.8-13.87,20.8-13.87Z"/><path class="cls-3" d="M68.34,189.38c17.33,17.33,86.66,17.33,104,0,3.46-10.4,0-13.87,0-13.87,0-17.33-17.33-27.73-17.33-27.73,38.13-10.4,41.59-79.73-34.67-107.46C44.08,68.05,47.54,137.38,85.67,147.78c0,0-17.33,10.4-17.33,27.73,0,0-3.46,3.47,0,13.87Z"/><path class="cls-4" d="M68.34,189.38c17.33,17.33,86.66,17.33,104,0,3.46-10.4,0-13.87,0-13.87,0-17.33-17.33-27.73-17.33-27.73,38.13-10.4,41.59-79.73-34.67-107.46C44.08,68.05,47.54,137.38,85.67,147.78c0,0-17.33,10.4-17.33,27.73,0,0-3.46,3.47,0,13.87Z"/><path class="cls-3" d="M137.67,23A17.33,17.33,0,1,1,120.33,5.65,17.34,17.34,0,0,1,137.67,23Z"/><path class="cls-4" d="M137.67,23A17.33,17.33,0,1,1,120.33,5.65,17.34,17.34,0,0,1,137.67,23Z"/><path class="cls-5" d="M85.67,147.78H155M68.34,175.51h104"/><path class="cls-6" d="M120.33,75v34.67M103,92.31h34.66"/></g></g></svg>