<svg xmlns="http://www.w3.org/2000/svg" viewBox="0 0 265.92 284.91"><defs><style>.cls-1{fill:#5c5c5c;}.cls-2,.cls-4,.cls-5,.cls-6,.cls-7,.cls-8{fill:none;}.cls-2{stroke:#5c5c5c;stroke-linecap:square;stroke-width:20.3px;}.cls-2,.cls-4,.cls-5,.cls-7{stroke-linejoin:round;}.cls-3{fill:#fff;}.cls-4,.cls-5,.cls-8{stroke:#fff;}.cls-4,.cls-6{stroke-width:3.35px;}.cls-5{stroke-width:2.75px;}.cls-6{stroke:#ff78ff;}.cls-6,.cls-8{stroke-linecap:round;}.cls-7{stroke:#000;}.cls-7,.cls-8{stroke-width:3.39px;}</style></defs><title>Asset 13</title><g id="Layer_2" data-name="Layer 2"><g id="Layer_1-2" data-name="Layer 1"><path class="cls-1" d="M132.13,31.37c-13.35,0-24.17,10-24.17,22.29a21.5,21.5,0,0,0,7.85,16.44c-67.19,33.61-62.53,100-23.16,110.47,0,0-18.16,7.29-18.16,26.1,0,0-3.29,6.61.57,17.9,6.51,6.34,19.67,10.5,34.91,12.56-28.73,5.75-66.64,1.45-81.23,8.54C10.59,254.5,20.6,250,10.15,264.58c5.23,7.31,8.14,12.56,18.59,8.9,26.14-7.31,78.09,3.45,104.22-7.52,26.14,11,78.09.21,104.22,7.52,10.45,3.66,13.36-1,18.59-8.32C251,252.46,253,255.64,236,245.67c-13.1-7.67-50.92-3.1-79.74-8.58,15.1-2.08,28.1-6.22,34.56-12.52,3.86-11.29,0-15,0-15,0-18.81-15.92-30.1-15.92-30.1,39.58-10.51,42.65-76.57-25.86-109.87a21.4,21.4,0,0,0,7.23-15.89c0-12.31-10.82-22.3-24.18-22.29Z"/><path class="cls-2" d="M132.13,31.37c-13.35,0-24.17,10-24.17,22.29a21.5,21.5,0,0,0,7.85,16.44c-67.19,33.61-62.53,100-23.16,110.47,0,0-18.16,7.29-18.16,26.1,0,0-3.29,6.61.57,17.9,6.51,6.34,19.67,10.5,34.91,12.56-28.73,5.75-66.64,1.45-81.23,8.54C10.59,254.5,20.6,250,10.15,264.58c5.23,7.31,8.14,12.56,18.59,8.9,26.14-7.31,78.09,3.45,104.22-7.52,26.14,11,78.09.21,104.22,7.52,10.45,3.66,13.36-1,18.59-8.32C251,252.46,253,255.64,236,245.67c-13.1-7.67-50.92-3.1-79.74-8.58,15.1-2.08,28.1-6.22,34.56-12.52,3.86-11.29,0-15,0-15,0-18.81-15.92-30.1-15.92-30.1,39.58-10.51,42.65-76.57-25.86-109.87a21.4,21.4,0,0,0,7.23-15.89c0-12.31-10.82-22.3-24.18-22.29Z"/><path class="cls-3" d="M28.74,215.67c19.08-9.28,78.09,1,104.22-17.32,26.14,18.29,85.89,7.25,103.08,17.32,17,10,15,6.79,19.73,19.48-5.23,7.32-8.14,12-18.59,8.33C211.05,236.17,159.1,246.93,133,236c-26.13,11-78.08.21-104.22,7.52-10.45,3.66-13.36-1.59-18.59-8.9,10.45-14.63.44-10.08,18.59-18.91Z"/><path class="cls-4" d="M28.74,215.67c19.08-9.28,78.09,1,104.22-17.32,26.14,18.29,85.89,7.25,103.08,17.32,17,10,15,6.79,19.73,19.48-5.23,7.32-8.14,12-18.59,8.33C211.05,236.17,159.1,246.93,133,236c-26.13,11-78.08.21-104.22,7.52-10.45,3.66-13.36-1.59-18.59-8.9,10.45-14.63.44-10.08,18.59-18.91Z"/><path class="cls-3" d="M75.06,194.57c19.3,18.81,96.5,18.81,115.8,0,3.86-11.29,0-15,0-15,0-18.81-15.92-30.1-15.92-30.1C217.4,138.14,217.88,62.9,133,32.8,48,62.9,50.19,139.28,92.65,150.57c0,0-18.16,7.29-18.16,26.1,0,0-3.29,6.61.57,17.9Z"/><path class="cls-4" d="M75.06,194.57c19.3,18.81,96.5,18.81,115.8,0,3.86-11.29,0-15,0-15,0-18.81-15.92-30.1-15.92-30.1C217.4,138.14,217.88,62.9,133,32.8,48,62.9,50.19,139.28,92.65,150.57c0,0-18.16,7.29-18.16,26.1,0,0-3.29,6.61.57,17.9Z"/><path class="cls-3" d="M156.31,23.66c0,12.31-10.82,22.28-24.18,22.28S108,36,108,23.66,118.78,1.37,132.13,1.37s24.18,10,24.18,22.29Z"/><path class="cls-5" d="M156.31,23.66c0,12.31-10.82,22.28-24.18,22.28S108,36,108,23.66,118.78,1.37,132.13,1.37s24.18,10,24.18,22.29Z"/><path class="cls-6" d="M94.36,149.42h77.2m-38.6-79V108m-19.3-18.81h38.6"/><path d="M38.85,218.42c23.46-6.74,70.11,3,93.59-13.86,23.46,16.85,70.12,7.12,93.59,13.86a55.27,55.27,0,0,1,20.79,13.87c-4.69,6.74-11.41,6.83-20.79,3.47-23.47-6.75-70.13,3.17-93.59-6.94-23.47,10.12-70.13.19-93.59,6.94-9.39,3.36-16.11,3.27-20.8-3.47,9.39-13.49,20.8-13.87,20.8-13.87Z"/><path class="cls-7" d="M38.85,218.42c23.46-6.74,70.11,3,93.59-13.86,23.46,16.85,70.12,7.12,93.59,13.86a55.27,55.27,0,0,1,20.79,13.87c-4.69,6.74-11.41,6.83-20.79,3.47-23.47-6.75-70.13,3.17-93.59-6.94-23.47,10.12-70.13.19-93.59,6.94-9.39,3.36-16.11,3.27-20.8-3.47,9.39-13.49,20.8-13.87,20.8-13.87Z"/><path d="M80.44,190.69c17.34,17.33,86.66,17.33,104,0,3.47-10.4,0-13.87,0-13.87,0-17.33-17.33-27.73-17.33-27.73,38.13-10.4,41.59-79.73-34.66-107.47C56.18,69.36,59.65,138.69,97.78,149.09c0,0-17.34,10.4-17.34,27.73,0,0-3.46,3.47,0,13.87Z"/><path class="cls-7" d="M80.44,190.69c17.34,17.33,86.66,17.33,104,0,3.47-10.4,0-13.87,0-13.87,0-17.33-17.33-27.73-17.33-27.73,38.13-10.4,41.59-79.73-34.66-107.47C56.18,69.36,59.65,138.69,97.78,149.09c0,0-17.34,10.4-17.34,27.73,0,0-3.46,3.47,0,13.87Z"/><path d="M149.77,24.29A17.33,17.33,0,1,1,132.44,7a17.33,17.33,0,0,1,17.33,17.33Z"/><path class="cls-7" d="M149.77,24.29A17.33,17.33,0,1,1,132.44,7a17.33,17.33,0,0,1,17.33,17.33Z"/><path class="cls-8" d="M97.78,149.09H167.1M80.44,176.82h104m-52-100.53V111M115.11,93.62h34.66"/></g></g></svg>