<svg xmlns="http://www.w3.org/2000/svg" viewBox="0 0 271.33 293.36"><defs><style>.cls-1{fill:#5c5c5c;}.cls-10,.cls-11,.cls-2,.cls-3,.cls-5,.cls-6,.cls-7,.cls-8,.cls-9{fill:none;}.cls-2{stroke:#5c5c5c;stroke-linecap:square;stroke-width:20.3px;}.cls-11,.cls-2,.cls-6,.cls-9{stroke-linejoin:round;}.cls-10,.cls-11,.cls-3,.cls-5,.cls-6{stroke:#fff;}.cls-10,.cls-11,.cls-3,.cls-6,.cls-7,.cls-9{stroke-linecap:round;}.cls-3{stroke-width:13.56px;}.cls-4{fill:#fff;}.cls-5,.cls-6{stroke-width:3.39px;}.cls-7,.cls-8,.cls-9{stroke:#000;}.cls-10,.cls-11,.cls-7,.cls-8,.cls-9{stroke-width:3.39px;}</style></defs><title>Asset 14</title><g id="Layer_2" data-name="Layer 2"><g id="Layer_1-2" data-name="Layer 1"><path class="cls-1" d="M119.34,54.18h0Zm17.14,17.2c-16.62,0-27.22,21.35-27.22,21.35-3.06,6.12-3,14.47-1.1,23.57-30.59-23.85-68.84-25.48-91.53,9-24.93,49.87,30.14,83.12,30.14,83.12l1.14,53.21c45.71,29.09,126,28.51,171.69-.58L219,208.63s61.1-30,36.17-79.86c-20.53-33.36-58.49-36.59-89.42-19.51.77-6.8.3-12.93-2.08-17.67,0,0-10.59-20.21-27.22-20.21Z"/><path class="cls-2" d="M119.34,54.18h0Zm17.14,17.2c-16.62,0-27.22,21.35-27.22,21.35-3.06,6.12-3,14.47-1.1,23.57-30.59-23.85-68.84-25.48-91.53,9-24.93,49.87,30.14,83.12,30.14,83.12l1.14,53.21c45.71,29.09,126,28.51,171.69-.58L219,208.63s61.1-30,36.17-79.86c-20.53-33.36-58.49-36.59-89.42-19.51.77-6.8.3-12.93-2.08-17.67,0,0-10.59-20.21-27.22-20.21Z"/><line class="cls-3" x1="136.49" y1="53.54" x2="136.49" y2="6.78"/><path class="cls-4" d="M136.48,149.44s39.69-62.92,27.22-87.85c0,0-10.59-20.21-27.22-20.21s-27.22,21.35-27.22,21.35c-12.46,24.94,27.22,86.71,27.22,86.71"/><path class="cls-5" d="M136.49,149.44s39.68-62.92,27.21-87.85c0,0-10.59-20.21-27.21-20.21s-27.23,21.35-27.23,21.35c-12.46,24.94,27.23,86.71,27.23,86.71"/><path class="cls-4" d="M47.91,231.68c45.71,29.09,126,28.51,171.69-.58L219,178.63s61.1-30,36.17-79.86C222,44.75,143,69.68,122.21,132l14.27,16V118.9C106.25,68,47.27,48.74,16.63,95.35c-24.93,49.87,30.14,83.12,30.14,83.12Z"/><path class="cls-6" d="M47.91,231.68c45.71,29.09,126,28.51,171.69-.58L219,178.63s61.1-30,36.17-79.86C222,44.75,143,69.68,122.21,132l14.28,16V118.9C106.25,68,47.27,48.74,16.63,95.35c-24.93,49.87,30.14,83.12,30.14,83.12Z"/><line class="cls-3" x1="115.7" y1="23.41" x2="157.26" y2="23.41"/><line class="cls-7" x1="136.67" y1="49.31" x2="136.67" y2="10.31"/><path d="M136.67,142s31.2-52,20.8-72.8c0,0-6.93-17.33-20.8-17.33s-20.79,17.33-20.79,17.33C105.48,90,136.67,142,136.67,142"/><path class="cls-8" d="M136.67,142s31.2-52,20.8-72.8c0,0-6.93-17.33-20.8-17.33s-20.79,17.33-20.79,17.33C105.48,90,136.67,142,136.67,142"/><path d="M60.41,225.24c38.13,24.26,107.46,24.26,145.59,0V176.71s62.39-31.2,41.59-72.8C219.86,58.84,154,79.64,136.67,131.64v0c-24.26-52-90.12-72.8-110.92-27.73C5,145.51,60.41,173.24,60.41,173.24Z"/><path class="cls-9" d="M60.42,225.24c38.12,24.26,107.45,24.26,145.58,0V176.71s62.39-31.2,41.59-72.8C219.86,58.84,154,79.64,136.67,131.64v0c-24.26-52-90.12-72.8-110.92-27.73C5,145.51,60.42,173.24,60.42,173.24Z"/><line class="cls-7" x1="119.34" y1="24.18" x2="154.01" y2="24.18"/><path class="cls-10" d="M60.42,173.24c38.12-17.33,107.45-17.33,145.58,3.47"/><path class="cls-11" d="M60.42,225.24c38.12-17.33,107.45-17.33,145.58,0M60.42,201C98.54,187.1,167.87,187.1,206,201m-3.47-27.73s58.93-27.73,41.78-66.93c-26.89-40.56-90.3-12.8-107.64,32.26l.08,14.54-.08-14.54C119.34,93.51,49.36,65.75,29.2,106.31c-17.32,39.2,33.61,62.4,33.61,62.4"/></g></g></svg>