<svg xmlns="http://www.w3.org/2000/svg" viewBox="0 0 242.06 275.16"><defs><style>.cls-1{fill:#5c5c5c;}.cls-2,.cls-3,.cls-4,.cls-6,.cls-7{fill:none;}.cls-2{stroke:#5c5c5c;stroke-width:11.9px;}.cls-2,.cls-3,.cls-4,.cls-7{stroke-linecap:round;}.cls-2,.cls-7{stroke-linejoin:round;}.cls-3{stroke:#fff;stroke-width:18.08px;}.cls-4,.cls-6,.cls-7{stroke:#000;stroke-width:11.3px;}.cls-5{fill:#fff;}</style></defs><title>Asset 6</title><g id="Layer_2" data-name="Layer 2"><g id="Layer_1-2" data-name="Layer 1"><path class="cls-1" d="M121.24,77.69c-30.81,6.45-23.12,39.1-17.07,54.44C21.26,54.61-34.51,162.74,45,199v52c38.13,24.27,107.45,24.27,145.58,0V202.48c101.25-54.54,10.77-136.69-50.35-75.9,8.6-24.68,2.19-45-19-48.89Z"/><path class="cls-2" d="M121.24,77.69c-30.81,6.45-23.12,39.1-17.07,54.44C21.26,54.61-34.51,162.74,45,199v52c38.13,24.27,107.45,24.27,145.58,0V202.48c101.25-54.54,10.77-136.69-50.35-75.9,8.6-24.68,2.19-45-19-48.89Z"/><path class="cls-3" d="M120.89,46.08V9M103.27,22.61h34.66"/><line class="cls-4" x1="121.24" y1="48.08" x2="121.24" y2="9.08"/><path class="cls-5" d="M121.24,140.82s31.19-52,20.8-72.8c0,0-6.94-17.33-20.8-17.33S100.44,68,100.44,68c-10.4,20.8,20.8,72.8,20.8,72.8"/><path class="cls-6" d="M121.24,140.82s31.19-52,20.8-72.8c0,0-6.94-17.33-20.8-17.33S100.44,68,100.44,68c-10.4,20.8,20.8,72.8,20.8,72.8"/><path class="cls-5" d="M45,224c38.13,24.27,107.45,24.27,145.58,0V175.48s62.39-31.2,41.59-72.8c-27.73-45.07-93.58-24.26-110.92,27.74v0C97,78.42,31.11,57.61,10.32,102.68-10.48,144.28,45,172,45,172Z"/><path class="cls-7" d="M45,224c38.13,24.27,107.45,24.27,145.58,0V175.48s62.39-31.2,41.59-72.8c-27.73-45.07-93.58-24.26-110.92,27.74v0C97,78.42,31.11,57.61,10.32,102.68-10.48,144.28,45,172,45,172Z"/><path class="cls-4" d="M103.91,23h34.66M45,172c38.13-17.33,107.45-17.33,145.58,3.47"/><path class="cls-7" d="M45,224c38.13-17.33,107.45-17.33,145.58,0M45,199.75c38.13-13.87,107.45-13.87,145.58,0"/></g></g></svg>