<svg xmlns="http://www.w3.org/2000/svg" viewBox="0 0 246.72 269.42"><defs><style>.cls-1{fill:#5c5c5c;}.cls-2,.cls-5,.cls-6,.cls-7{fill:none;stroke-linecap:round;}.cls-2{stroke:#5c5c5c;stroke-width:11.9px;}.cls-2,.cls-6,.cls-7{stroke-linejoin:round;}.cls-3{fill:#f2f2f2;}.cls-4{fill:#fff;}.cls-5,.cls-6,.cls-7{stroke:#000;}.cls-5,.cls-6{stroke-width:2.26px;}.cls-7{stroke-width:0.74px;}</style></defs><title>Asset 9</title><g id="Layer_2" data-name="Layer 2"><g id="Layer_1-2" data-name="Layer 1"><path class="cls-1" d="M119.45,27c-13.84,7.6-22.16,22.62-22.16,22.62H87.63S67.07,23.23,59,30.77c0,7.54-3.44,15.12,2.42,22.62-3,24.28-106.2,153.58-23.36,147,9-5.81-1.25-4.52,8.06,7.53,17.57,2.59,16.11-15.07,40.29-30.15a212.38,212.38,0,0,0,38.71-32C119.46,207.31,67.28,191.9,69,263.41H222.66l-.37.06h12.92v-.06h5.31c3.37-137.51-26.58-196.69-101-211.29h0c-3.86-.79-7.82-1.5-11.91-2.08-.38-1.12,0-22.27-8.18-23Z"/><path class="cls-2" d="M119.45,27c-13.84,7.6-22.16,22.62-22.16,22.62H87.63S67.07,23.23,59,30.77c0,7.54-3.44,15.12,2.42,22.62-3,24.28-106.2,153.58-23.36,147,9-5.81-1.25-4.52,8.06,7.53,17.57,2.59,16.11-15.07,40.29-30.15a212.38,212.38,0,0,0,38.71-32C119.46,207.31,67.28,191.9,69,263.41H222.66l-.37.06h12.92v-.06h5.31c3.37-137.51-26.58-196.69-101-211.29h0c-3.86-.79-7.82-1.5-11.91-2.08-.38-1.12,0-22.27-8.18-23Z"/><path d="M120.71,22.16c84.83,9.41,123.5,59.11,119.81,214.25H69C67,153,138.44,188,123.66,80.86"/><path d="M143.63,82.93c3.1,21.94-37.49,55.55-57.21,67.85-24.18,15.08-22.72,32.74-40.29,30.15-9.31-12.05,1-13.34-8.06-7.54-8.06,0-32.26,7.54-32.24-30.15,0-15.08,42.71-90.47,42.71-90.47s12-14.34,12.89-26.38C55.57,18.89,59,11.31,59,3.77c8.06-7.54,28.62,18.85,28.62,18.85h9.66S105.61,7.6,119.45,0c8.06,0,8.06,22.62,8.06,22.62"/><path class="cls-3" d="M28.38,136.67A3.7,3.7,0,1,1,24.69,133a3.7,3.7,0,0,1,3.69,3.69Z"/><path class="cls-3" d="M68.51,64.64c-3.06,5.3-7,8.77-8.74,7.76S59.05,66.25,62.11,61s7-8.77,8.74-7.75.72,6.14-2.34,11.44Z"/><path d="M139.55,25.12l-2.21,8.13,4.06.73c22.91,3.53,46.71,16.51,63.34,48s21.59,81,17.92,154.45l-.37.06h12.92v-.06c3.72-74.3-6.47-124.51-24-157.68s-42.76-49-67.87-52.87Z"/><path class="cls-4" d="M123.21,28.71C196,35.65,237.6,84.18,234.13,229.77H74.68c0-62.39,69.33-45.06,55.46-145.59"/><path class="cls-5" d="M123.21,28.71C196,35.65,237.6,84.18,234.13,229.77H74.68c0-62.39,69.33-45.06,55.46-145.59"/><path class="cls-4" d="M137.08,84.18c2.66,20.18-38.5,51.09-55.46,62.39C60.82,160.44,62.07,176.68,47,174.31c-7.23-6.54,9.79-21.06,0-20.8-6.94,0,1.29,8.54-6.94,13.87-6.93,0-27.75,6.93-27.73-27.74,0-13.86,41.6-83.19,41.6-83.19S67,43.25,67.75,32.18c-5-6.9-3.46-13.87-3.46-20.8,6.93-6.94,20.8,17.33,20.8,17.33H99s5.42-13.81,17.33-20.8c6.93,0,6.93,20.8,6.93,20.8"/><path class="cls-6" d="M137.08,84.18c2.66,20.18-38.5,51.09-55.46,62.39C60.82,160.44,62.07,176.68,47,174.31c-7.23-6.54,9.79-21.06,0-20.8-6.94,0,1.29,8.54-6.94,13.87-6.93,0-27.75,6.93-27.73-27.74,0-13.86,41.6-83.19,41.6-83.19S67,43.25,67.75,32.18c-5-6.9-3.46-13.87-3.46-20.8,6.93-6.94,20.8,17.33,20.8,17.33H99s5.42-13.81,17.33-20.8c6.93,0,6.93,20.8,6.93,20.8"/><path d="M36.55,136.18a3.47,3.47,0,1,1-3.46-3.47,3.46,3.46,0,0,1,3.46,3.47Z"/><path class="cls-7" d="M36.55,136.18a3.47,3.47,0,1,1-3.46-3.47,3.46,3.46,0,0,1,3.46,3.47Z"/><path d="M74.22,68.58c-2.87,5-6.54,8.23-8.2,7.27s-.68-5.77,2.19-10.74,6.55-8.23,8.21-7.27.67,5.76-2.2,10.74Z"/><path class="cls-7" d="M74.22,68.58c-2.87,5-6.54,8.23-8.2,7.27s-.68-5.77,2.19-10.74,6.55-8.23,8.21-7.27.67,5.76-2.2,10.74Z"/><path d="M138.79,31.48l-2.08,7.63,3.82.7c21.5,3.3,43.83,15.49,59.44,45s22.36,73.83,18.91,142.76l-.34,3.47h12.13v-3.47c3.48-69.72-8.18-114.66-24.63-145.8s-40.13-46-63.69-49.61Z"/></g></g></svg>