<svg xmlns="http://www.w3.org/2000/svg" viewBox="0 0 255.23 276.62"><defs><style>.cls-1{fill:#5c5c5c;}.cls-2,.cls-5,.cls-6,.cls-7{fill:none;}.cls-2{stroke:#5c5c5c;stroke-linecap:square;stroke-width:20.3px;}.cls-2,.cls-6,.cls-7{stroke-linejoin:round;}.cls-3{fill:#fff;}.cls-4{fill:#f2f2f2;}.cls-5,.cls-6{stroke:#000;stroke-width:2.26px;}.cls-5,.cls-6,.cls-7{stroke-linecap:round;}.cls-7{stroke:#fff;stroke-width:0.74px;}</style></defs><title>Asset 12</title><g id="Layer_2" data-name="Layer 2"><g id="Layer_1-2" data-name="Layer 1"><path class="cls-1" d="M123.77,30c-13.85,7.6-22.17,22.62-22.17,22.62H91.94S71.38,26.23,63.33,33.77c0,7.54-3.44,15.12,2.41,22.62-.91,12-12.89,26.38-12.89,26.38s-42.7,75.39-42.7,90.47c0,37.69,24.18,30.15,32.23,30.15,9-5.8-1.25-4.51,8.07,7.54,17.57,2.59,16.11-15.08,40.29-30.16a211.86,211.86,0,0,0,38.71-32c-5.68,61.52-57.85,46.11-56.13,117.62H227l-.37.06h12.93v-.06h5.31c2.87-120.75-19.92-177.61-70.16-201.33a82,82,0,0,0-27-9.22l-3.79-.74h0c-3.87-.8-7.83-1.5-11.92-2.08l-.11-.43s0-22.62-8.06-22.62Z"/><path class="cls-2" d="M123.77,30c-13.85,7.6-22.17,22.62-22.17,22.62H91.94S71.38,26.23,63.33,33.77c0,7.54-3.44,15.12,2.41,22.62-.91,12-12.89,26.38-12.89,26.38s-42.7,75.39-42.7,90.47c0,37.69,24.18,30.15,32.23,30.15,9-5.8-1.25-4.51,8.07,7.54,17.57,2.59,16.11-15.08,40.29-30.16a211.86,211.86,0,0,0,38.71-32c-5.68,61.52-57.85,46.11-56.13,117.62H227l-.37.06h12.93v-.06h5.31c2.87-120.75-19.92-177.61-70.16-201.33a82,82,0,0,0-27-9.22l-3.79-.74h0c-3.87-.8-7.83-1.5-11.92-2.08l-.11-.43s0-22.62-8.06-22.62Z"/><path class="cls-3" d="M125,22.16c84.83,9.41,123.5,59.1,119.8,214.25H73.32C71.3,153,142.75,188,128,80.86"/><path class="cls-3" d="M148,82.93c3.09,21.94-37.49,55.55-57.21,67.84C66.56,165.85,68,183.52,50.45,180.93c-9.32-12.05,1-13.34-8.07-7.54-8.05,0-32.25,7.54-32.23-30.15,0-15.08,42.7-90.47,42.7-90.47s12-14.34,12.89-26.38c-5.85-7.5-2.41-15.08-2.41-22.62,8-7.54,28.61,18.85,28.61,18.85h9.66S109.92,7.6,123.77,0c8.06,0,8.06,22.62,8.06,22.62"/><path class="cls-4" d="M32.7,136.67A3.7,3.7,0,1,1,29,133a3.7,3.7,0,0,1,3.7,3.7Z"/><path class="cls-4" d="M72.83,64.64c-3.06,5.3-7,8.77-8.74,7.75s-.72-6.14,2.34-11.45,7-8.76,8.74-7.75.72,6.15-2.34,11.45Z"/><path class="cls-3" d="M143.87,25.12l-2.22,8.12,4.07.74c22.91,3.53,46.71,16.51,63.34,48S230.64,163,227,236.41l-.37.06h12.93v-.06c3.72-74.3-6.47-124.51-24-157.68s-42.77-49-67.87-52.87Z"/><path d="M127.53,28.71c72.79,6.93,114.38,55.47,110.92,201.06H79c0-62.4,69.33-45.07,55.46-145.59"/><path class="cls-5" d="M127.53,28.71c72.79,6.93,114.38,55.47,110.92,201.06H79c0-62.4,69.33-45.07,55.46-145.59"/><path d="M141.4,84.17c2.66,20.19-38.5,51.09-55.46,62.4-20.8,13.87-19.55,30.11-34.67,27.73-7.22-6.54,9.8-21.05,0-20.8-6.93,0,1.3,8.55-6.93,13.87-6.93,0-27.75,6.93-27.73-27.73,0-13.87,41.6-83.2,41.6-83.2S71.28,43.25,72.07,32.17c-5-6.89-3.47-13.87-3.47-20.8,6.94-6.93,20.8,17.34,20.8,17.34h13.87s5.42-13.82,17.33-20.8c6.93,0,6.93,20.8,6.93,20.8"/><path class="cls-6" d="M141.4,84.17c2.66,20.19-38.5,51.09-55.46,62.4-20.8,13.87-19.55,30.11-34.67,27.73-7.22-6.54,9.8-21.05,0-20.8-6.93,0,1.3,8.55-6.93,13.87-6.93,0-27.75,6.93-27.73-27.73,0-13.87,41.6-83.2,41.6-83.2S71.28,43.25,72.07,32.17c-5-6.89-3.47-13.87-3.47-20.8,6.94-6.93,20.8,17.34,20.8,17.34h13.87s5.42-13.82,17.33-20.8c6.93,0,6.93,20.8,6.93,20.8"/><path class="cls-3" d="M40.87,136.17a3.47,3.47,0,1,1-3.46-3.47,3.46,3.46,0,0,1,3.46,3.47Z"/><path class="cls-7" d="M40.87,136.17a3.47,3.47,0,1,1-3.46-3.47,3.46,3.46,0,0,1,3.46,3.47Z"/><path class="cls-3" d="M78.54,68.57c-2.87,5-6.55,8.23-8.2,7.28s-.68-5.77,2.19-10.74,6.55-8.23,8.21-7.27.67,5.76-2.2,10.73Z"/><path class="cls-7" d="M78.54,68.57c-2.87,5-6.55,8.23-8.2,7.28s-.68-5.77,2.19-10.74,6.55-8.23,8.21-7.27.67,5.76-2.2,10.73Z"/><path class="cls-3" d="M143.11,31.48,141,39.11l3.81.69c21.5,3.31,43.84,15.49,59.45,45s22.36,73.84,18.91,142.77l-.35,3.47H235v-3.47c3.49-69.72-8.17-114.66-24.63-145.8s-40.13-46-63.69-49.61Z"/></g></g></svg>