<svg xmlns="http://www.w3.org/2000/svg" viewBox="0 0 3139.29 3139.28"><defs><style>.cls-1{fill:#4a4135;}.cls-2{fill:none;stroke:#381f04;stroke-width:450px;}.cls-3{fill:#ffd8b4;}</style></defs><title>Asset 1</title><g id="Layer_2" data-name="Layer 2"><g id="Layer_1-2" data-name="Layer 1"><rect class="cls-1" x="225" y="225" width="2689.29" height="2689.28"/><rect class="cls-2" x="225" y="225" width="2689.29" height="2689.28"/><rect class="cls-1" x="225" y="225" width="2689.29" height="2689.28"/><rect class="cls-3" x="565.98" y="2573.3" width="334.55" height="334.55"/><rect class="cls-3" x="1235.09" y="2573.3" width="334.55" height="334.55"/><rect class="cls-3" x="1904.19" y="2573.3" width="334.55" height="334.55"/><rect class="cls-3" x="2573.3" y="2573.3" width="334.55" height="334.55"/><rect class="cls-3" x="231.43" y="2238.75" width="334.55" height="334.55"/><rect class="cls-3" x="900.54" y="2238.75" width="334.55" height="334.55"/><rect class="cls-3" x="1569.64" y="2238.75" width="334.56" height="334.55"/><rect class="cls-3" x="2238.75" y="2238.75" width="334.55" height="334.55"/><rect class="cls-3" x="565.98" y="1904.2" width="334.55" height="334.56"/><rect class="cls-3" x="1235.09" y="1904.2" width="334.55" height="334.56"/><rect class="cls-3" x="1904.19" y="1904.2" width="334.55" height="334.56"/><rect class="cls-3" x="2573.3" y="1904.2" width="334.55" height="334.56"/><rect class="cls-3" x="231.43" y="1569.65" width="334.55" height="334.55"/><rect class="cls-3" x="900.54" y="1569.65" width="334.55" height="334.55"/><rect class="cls-3" x="1569.64" y="1569.65" width="334.56" height="334.55"/><rect class="cls-3" x="2238.75" y="1569.65" width="334.55" height="334.55"/><rect class="cls-3" x="565.98" y="1235.09" width="334.55" height="334.56"/><rect class="cls-3" x="1235.09" y="1235.09" width="334.55" height="334.56"/><rect class="cls-3" x="1904.19" y="1235.09" width="334.55" height="334.56"/><rect class="cls-3" x="2573.3" y="1235.09" width="334.55" height="334.56"/><rect class="cls-3" x="231.43" y="900.54" width="334.55" height="334.55"/><rect class="cls-3" x="900.54" y="900.54" width="334.55" height="334.55"/><rect class="cls-3" x="1569.64" y="900.54" width="334.56" height="334.55"/><rect class="cls-3" x="2238.75" y="900.54" width="334.55" height="334.55"/><rect class="cls-3" x="565.98" y="565.99" width="334.55" height="334.55"/><rect class="cls-3" x="1235.09" y="565.99" width="334.55" height="334.55"/><rect class="cls-3" x="1904.19" y="565.99" width="334.55" height="334.55"/><rect class="cls-3" x="2573.3" y="565.99" width="334.55" height="334.55"/><rect class="cls-3" x="231.43" y="231.43" width="334.55" height="334.55"/><rect class="cls-3" x="900.54" y="231.43" width="334.55" height="334.55"/><rect class="cls-3" x="1569.64" y="231.43" width="334.56" height="334.55"/><rect class="cls-3" x="2238.75" y="231.43" width="334.55" height="334.55"/><path class="cls-3" d="M78.9,2732.34H13.07v-12.42H38.39v-81.51H13.07V2627.3a81.1,81.1,0,0,0,11-.81A28.69,28.69,0,0,0,33,2624a16.64,16.64,0,0,0,5.88-5.14,16.48,16.48,0,0,0,2.53-8.5H54.07v109.61H78.9Z" transform="translate(79.89 69.21)"/><path class="cls-3" d="M87.15,2398.89H4.82v-17.07L22,2367.12q8.67-7.35,16.09-14.62,15.69-15.2,21.48-24.1a35,35,0,0,0,5.8-19.36q0-9.47-6.29-14.78t-17.39-5.39a55.94,55.94,0,0,0-16.09,2.61,65.27,65.27,0,0,0-16.91,8H7.84v-17.16a78.39,78.39,0,0,1,15.44-5.22,79.22,79.22,0,0,1,18.79-2.37q18.7,0,29.32,9.07T82,2308.23a45.25,45.25,0,0,1-1.8,13,43.28,43.28,0,0,1-5.15,11.36,77.84,77.84,0,0,1-7.51,10q-4.24,4.91-10.37,10.86-8.74,8.58-18.06,16.67t-17.39,14.86H87.15Z" transform="translate(79.89 69.21)"/><path class="cls-3" d="M77.07,2004.59a27.68,27.68,0,0,1,6.45,8.82q2.53,5.31,2.53,13.72a38,38,0,0,1-3,15.28,36.32,36.32,0,0,1-8.5,12.08,38.89,38.89,0,0,1-14.46,8.5,58,58,0,0,1-18.13,2.69A81.94,81.94,0,0,1,22,2063.24,92.35,92.35,0,0,1,5.92,2058v-17.08H7.15a66.14,66.14,0,0,0,16.33,7.6,59,59,0,0,0,18.14,3,38.69,38.69,0,0,0,10.94-1.71,23,23,0,0,0,9.39-5.07,23.2,23.2,0,0,0,5.56-7.92,27.65,27.65,0,0,0,1.88-10.94,24,24,0,0,0-2.13-10.78,16.22,16.22,0,0,0-5.71-6.78,22.29,22.29,0,0,0-8.9-3.44,61.62,61.62,0,0,0-11.28-1H34v-13.55h5.72q12.42,0,19.76-5.15T66.94,1970a15,15,0,0,0-7.11-13.15,23.34,23.34,0,0,0-7.51-2.94,45.25,45.25,0,0,0-9.07-.82,54.65,54.65,0,0,0-16.5,2.78,67.83,67.83,0,0,0-16.5,7.84H9.43v-17.07a77.68,77.68,0,0,1,15.44-5.23A76.93,76.93,0,0,1,43.66,1939a67.3,67.3,0,0,1,15.68,1.64,38.19,38.19,0,0,1,12.25,5.22,25.34,25.34,0,0,1,11.93,22.47,25,25,0,0,1-7.19,17.72,31.24,31.24,0,0,1-16.83,9.47v1.15a41.25,41.25,0,0,1,9,2.77,29.84,29.84,0,0,1,8.58,5.15Z" transform="translate(79.89 69.21)"/><path class="cls-3" d="M92,1694.46h-18v34.22H58.24v-34.22H0v-18.79l58.89-68.61h15v74.33H92Zm-33.73-13.07V1626.5l-47.13,54.89Z" transform="translate(79.89 69.21)"/><path class="cls-3" d="M85.6,1354.31a43.41,43.41,0,0,1-3.1,16.26,37.8,37.8,0,0,1-8.5,13.06,40.23,40.23,0,0,1-14,8.82,53.37,53.37,0,0,1-18.78,3,85.15,85.15,0,0,1-19.2-2.13,77.55,77.55,0,0,1-15.6-5v-17.23H7.52a72.35,72.35,0,0,0,15.68,7.27,56.52,56.52,0,0,0,17.64,2.94A38.31,38.31,0,0,0,52,1379.71a23.5,23.5,0,0,0,9.72-5.71,22.39,22.39,0,0,0,5.39-8.42A31.4,31.4,0,0,0,69,1354.23a23.11,23.11,0,0,0-2.21-10.62,17.57,17.57,0,0,0-6-6.94,26,26,0,0,0-10.37-4.33A64.45,64.45,0,0,0,36.92,1331,96.2,96.2,0,0,0,23,1332q-6.62,1-11.44,2v-62.64H84.78v14.29H27.36V1318c2.35-.21,4.74-.38,7.19-.49s4.57-.16,6.37-.16A77.27,77.27,0,0,1,58.24,1319a38.51,38.51,0,0,1,13.64,5.88A30.71,30.71,0,0,1,82,1336.5q3.58,7.11,3.59,17.81Z" transform="translate(79.89 69.21)"/><path class="cls-3" d="M89,1020q0,18.56-12.25,30.31T46.88,1062a45.94,45.94,0,0,1-16.33-2.78,37.45,37.45,0,0,1-13-8.25q-7-6.78-10.86-18t-3.76-26.95a108.92,108.92,0,0,1,3.43-28.67,63.7,63.7,0,0,1,11.11-22.22A48.31,48.31,0,0,1,36,940.82q11.35-5.24,26.46-5.23a67.2,67.2,0,0,1,8.09.41,36.87,36.87,0,0,1,6.62,1.47v15.6h-.82a29.14,29.14,0,0,0-6.94-2.29A38.69,38.69,0,0,0,60,949.64q-17.57,0-28,11T19.85,990.31A63.73,63.73,0,0,1,33.33,984a49.32,49.32,0,0,1,15.43-2.2,56.54,56.54,0,0,1,13.64,1.47A35.49,35.49,0,0,1,74.58,989a31.53,31.53,0,0,1,10.78,12.58Q89,1009.18,89,1020Zm-16.58.66a30.1,30.1,0,0,0-2.29-12.58,21.26,21.26,0,0,0-7.35-8.66A20.76,20.76,0,0,0,54.48,996a54.68,54.68,0,0,0-9.55-.81A48.71,48.71,0,0,0,32,996.85a57.54,57.54,0,0,0-12.25,5.06c-.11,1.2-.19,2.37-.25,3.52s-.08,2.47-.08,4.16q0,12.9,2.61,20.42a29.3,29.3,0,0,0,7.36,11.76,24.91,24.91,0,0,0,8.08,5.31,27.3,27.3,0,0,0,9.56,1.63q11.85,0,18.62-7.18t6.78-20.83Z" transform="translate(79.89 69.21)"/><path class="cls-3" d="M87.6,621.62,32.55,725H15.07L73.63,617.7H4.37V603.41H87.6Z" transform="translate(79.89 69.21)"/><path class="cls-3" d="M89.2,356.5q0,15.75-12.34,26.21T46,393.17q-19.75,0-31.52-10.21T2.78,356.82a30.6,30.6,0,0,1,5.88-18.3,40,40,0,0,1,16.58-13.06V325q-9.79-5.22-14.54-11.43T6.05,298q0-13.72,11.27-22.86T46,266q18.23,0,29.08,8.74T85.93,297a29.8,29.8,0,0,1-5.15,16.26,34.14,34.14,0,0,1-15.11,12.41v.49Q77.1,331,83.15,338.2t6,18.3ZM69.84,297.11a16.52,16.52,0,0,0-6.78-13.88Q56.36,278,45.91,278T29,282.9a15.68,15.68,0,0,0-6.54,13.23,16.45,16.45,0,0,0,3.27,10.21,28.94,28.94,0,0,0,10.05,7.6q3,1.47,8.65,3.84a106.94,106.94,0,0,0,11.11,3.92q8.09-5.38,11.19-11.19a27.93,27.93,0,0,0,3.11-13.4Zm2.53,60.94q0-7.51-3.35-12t-12.91-9.15a85.15,85.15,0,0,0-8.41-3.35q-4.58-1.55-12.17-4.33a32.41,32.41,0,0,0-11.84,10.87,28.06,28.06,0,0,0-4.41,15.52,24,24,0,0,0,7.6,18.21Q34.47,381,46.15,381q11.93,0,19-6.13t7.19-16.82Z" transform="translate(79.89 69.21)"/><path class="cls-3" d="M2983.93,2732.34H2918.1v-12.42h25.32v-81.51H2918.1V2627.3a81.1,81.1,0,0,0,11-.81,28.61,28.61,0,0,0,8.9-2.54,15,15,0,0,0,8.41-13.64h12.66v109.61h24.83Z" transform="translate(79.89 69.21)"/><path class="cls-3" d="M2992.18,2398.89h-82.33v-17.07l17.15-14.7q8.67-7.35,16.09-14.62,15.69-15.2,21.49-24.1a35.07,35.07,0,0,0,5.79-19.36q0-9.47-6.28-14.78t-17.4-5.39a55.94,55.94,0,0,0-16.09,2.61,65.27,65.27,0,0,0-16.91,8h-.82v-17.16a78.39,78.39,0,0,1,15.44-5.22,79.22,79.22,0,0,1,18.79-2.37q18.71,0,29.32,9.07t10.62,24.42a45.25,45.25,0,0,1-1.8,13,43.28,43.28,0,0,1-5.15,11.36,77.84,77.84,0,0,1-7.51,10q-4.24,4.91-10.37,10.86-8.74,8.58-18.05,16.67t-17.4,14.86h65.42Z" transform="translate(79.89 69.21)"/><path class="cls-3" d="M2982.09,2004.59a27.55,27.55,0,0,1,6.46,8.82q2.52,5.31,2.53,13.72a37.79,37.79,0,0,1-3,15.28,36.32,36.32,0,0,1-8.5,12.08,38.93,38.93,0,0,1-14.45,8.5,58.07,58.07,0,0,1-18.14,2.69,82.08,82.08,0,0,1-19.93-2.44A92.5,92.5,0,0,1,2911,2058v-17.08h1.23a66,66,0,0,0,16.34,7.6,58.9,58.9,0,0,0,18.13,3,38.69,38.69,0,0,0,10.94-1.71,23,23,0,0,0,9.39-5.07,23.2,23.2,0,0,0,5.56-7.92,27.65,27.65,0,0,0,1.88-10.94,24,24,0,0,0-2.13-10.78,16.22,16.22,0,0,0-5.71-6.78,22.27,22.27,0,0,0-8.91-3.44,61.43,61.43,0,0,0-11.27-1h-7.35v-13.55h5.72q12.42,0,19.77-5.15T2972,1970a15,15,0,0,0-7.11-13.15,23.25,23.25,0,0,0-7.51-2.94,45.18,45.18,0,0,0-9.07-.82,54.65,54.65,0,0,0-16.5,2.78,67.83,67.83,0,0,0-16.5,7.84h-.82v-17.07a89.64,89.64,0,0,1,34.23-7.68,67.3,67.3,0,0,1,15.68,1.64,38.19,38.19,0,0,1,12.25,5.22,25.34,25.34,0,0,1,11.93,22.47,25,25,0,0,1-7.19,17.72,31.22,31.22,0,0,1-16.82,9.47v1.15a41.35,41.35,0,0,1,9,2.77,29.64,29.64,0,0,1,8.57,5.15Z" transform="translate(79.89 69.21)"/><path class="cls-3" d="M2997,1694.46H2979v34.22h-15.68v-34.22H2905v-18.79l58.89-68.61h15v74.33H2997Zm-33.73-13.07V1626.5l-47.13,54.89Z" transform="translate(79.89 69.21)"/><path class="cls-3" d="M2990.63,1354.31a43.41,43.41,0,0,1-3.1,16.26,37.8,37.8,0,0,1-8.5,13.06,40.23,40.23,0,0,1-14.05,8.82,53.37,53.37,0,0,1-18.78,3,85.21,85.21,0,0,1-19.2-2.13,77.55,77.55,0,0,1-15.6-5v-17.23h1.15a72.35,72.35,0,0,0,15.68,7.27,56.52,56.52,0,0,0,17.64,2.94,38.31,38.31,0,0,0,11.19-1.64,23.5,23.5,0,0,0,9.72-5.71,22.39,22.39,0,0,0,5.39-8.42,31.4,31.4,0,0,0,1.88-11.35,23.11,23.11,0,0,0-2.21-10.62,17.57,17.57,0,0,0-6-6.94,26,26,0,0,0-10.37-4.33A64.45,64.45,0,0,0,2942,1331a96.2,96.2,0,0,0-13.88,1q-6.62,1-11.44,2v-62.64h73.18v14.29h-57.42V1318c2.34-.21,4.74-.38,7.19-.49s4.58-.16,6.37-.16a77.27,77.27,0,0,1,17.32,1.72,38.51,38.51,0,0,1,13.64,5.88A30.63,30.63,0,0,1,2987,1336.5q3.59,7.11,3.59,17.81Z" transform="translate(79.89 69.21)"/><path class="cls-3" d="M2994.06,1020q0,18.56-12.25,30.31t-29.9,11.68a45.94,45.94,0,0,1-16.33-2.78,37.45,37.45,0,0,1-13-8.25q-7-6.78-10.86-18t-3.76-26.95a108.92,108.92,0,0,1,3.43-28.67,63.87,63.87,0,0,1,11.11-22.22,48.39,48.39,0,0,1,18.54-14.37q11.35-5.24,26.47-5.23a67.13,67.13,0,0,1,8.08.41,36.87,36.87,0,0,1,6.62,1.47v15.6h-.82a29.3,29.3,0,0,0-6.94-2.29,38.69,38.69,0,0,0-9.39-1.14q-17.57,0-28,11t-12.17,29.65a64,64,0,0,1,13.48-6.29,49.32,49.32,0,0,1,15.43-2.2,56.54,56.54,0,0,1,13.64,1.47,35.49,35.49,0,0,1,12.18,5.72,31.61,31.61,0,0,1,10.78,12.58q3.68,7.59,3.67,18.45Zm-16.58.66a30.27,30.27,0,0,0-2.28-12.58,21.36,21.36,0,0,0-7.36-8.66,20.76,20.76,0,0,0-8.33-3.43,54.71,54.71,0,0,0-9.56-.81,48.64,48.64,0,0,0-12.9,1.63,57.75,57.75,0,0,0-12.25,5.06c-.11,1.2-.19,2.37-.24,3.52s-.09,2.47-.09,4.16q0,12.9,2.62,20.42a29.18,29.18,0,0,0,7.35,11.76,24.91,24.91,0,0,0,8.08,5.31,27.3,27.3,0,0,0,9.56,1.63q11.84,0,18.62-7.18t6.78-20.83Z" transform="translate(79.89 69.21)"/><path class="cls-3" d="M2992.63,621.62,2937.58,725H2920.1l58.56-107.32H2909.4V603.41h83.23Z" transform="translate(79.89 69.21)"/><path class="cls-3" d="M2994.22,356.5q0,15.75-12.33,26.21T2951,393.17q-19.77,0-31.53-10.21t-11.68-26.14a30.6,30.6,0,0,1,5.88-18.3,40,40,0,0,1,16.58-13.06V325q-9.8-5.22-14.54-11.43T2911.08,298q0-13.72,11.27-22.86T2951,266q18.21,0,29.07,8.74T2991,297a29.8,29.8,0,0,1-5.15,16.26,34.14,34.14,0,0,1-15.11,12.41v.49q11.45,4.9,17.48,12.09t6,18.3Zm-19.35-59.39a16.52,16.52,0,0,0-6.78-13.88q-6.71-5.22-17.16-5.23-10.28,0-16.9,4.9a15.68,15.68,0,0,0-6.54,13.23,16.45,16.45,0,0,0,3.27,10.21,28.94,28.94,0,0,0,10,7.6q3,1.47,8.65,3.84a106.27,106.27,0,0,0,11.12,3.92c5.38-3.59,9.12-7.32,11.18-11.19a27.93,27.93,0,0,0,3.11-13.4Zm2.53,60.94q0-7.51-3.35-12t-12.91-9.15a84.18,84.18,0,0,0-8.41-3.35q-4.58-1.55-12.17-4.33a32.41,32.41,0,0,0-11.84,10.87,28.06,28.06,0,0,0-4.41,15.52,24,24,0,0,0,7.59,18.21q7.6,7.19,19.28,7.19,11.93,0,19-6.13t7.19-16.82Z" transform="translate(79.89 69.21)"/><path class="cls-3" d="M341.68,71.39H300.6l-9.39,23.36H275.28L312.69,3.51h17.4l37.48,91.24H351.16Zm-37.24-11h33.4L321.1,17.89Z" transform="translate(79.89 69.21)"/><path class="cls-3" d="M617.51,3.51h30.3q19.52,0,27.69,5.31t8.17,15.44q0,15.19-14.46,19.36v.73q21.57,4.5,21.56,22.63,0,27.76-38.38,27.77H617.51Zm31.77,37.41q18.94,0,19-13.88a9.77,9.77,0,0,0-5.06-8.91q-5-3-18.22-3H632.21V40.92ZM648,84q14.53,0,21-4.09t6.46-13q0-16.26-23.53-16.26H632.21V84Z" transform="translate(79.89 69.21)"/><path class="cls-3" d="M1030.92,8.33v15.6h-1.47a51.58,51.58,0,0,0-32.1-10.78q-15.2,0-23.93,9.23t-8.66,25.24q0,16.41,8.82,25.48t24.18,9q18.54,0,31.53-10h1.63V86.25A68.17,68.17,0,0,1,997,94.75q-22.47,0-35.7-12.82T948.18,47.62q0-21.24,13.4-34.3T997,.25a73.86,73.86,0,0,1,33.89,8.08Z" transform="translate(79.89 69.21)"/><path class="cls-3" d="M1285.55,94.75V3.51h27.85q27.94,0,42.23,11.85T1370,49.25q0,22.31-15.6,33.9t-40.51,11.6Zm15.36-78.58V82.33h11.43q19.77,0,30.47-8.33t10.78-24.91q0-32.91-40.51-32.92Z" transform="translate(79.89 69.21)"/><path class="cls-3" d="M1692.55,94.75h-67.38V3.51h67.38V15.77h-52V39h50.32V50.72h-50.32V82.58h52Z" transform="translate(79.89 69.21)"/><path class="cls-3" d="M2025.31,15.77h-49V39.7H2019V51.79H1976.3v43H1961V3.51h64.28Z" transform="translate(79.89 69.21)"/><path class="cls-3" d="M2372.81,86a76.9,76.9,0,0,1-36.43,8.74q-23.94,0-38-12.74t-14.05-34.8q0-21.24,13.72-34.22t36.68-13a86.06,86.06,0,0,1,36.34,8V21.81h-1.47a71.09,71.09,0,0,0-35.28-9.64q-16.17,0-25.24,9.23t-9,25.48q0,17.4,9.07,26.88t26.38,9.39q14.46,0,23.85-5V57.83H2332.7V46.56h40.11Z" transform="translate(79.89 69.21)"/><path class="cls-3" d="M2698.46,94.75h-15.52V51.54h-45.25V94.75H2622V3.51h15.69V38.39h45.25V3.51h15.52Z" transform="translate(79.89 69.21)"/><path class="cls-3" d="M341.68,2967.89H300.6l-9.39,23.36H275.28L312.69,2900h17.4l37.48,91.24H351.16Zm-37.24-10.95h33.4l-16.74-42.55Z" transform="translate(79.89 69.21)"/><path class="cls-3" d="M617.51,2900h30.3q19.52,0,27.69,5.32t8.17,15.43q0,15.19-14.46,19.36v.73q21.57,4.5,21.56,22.63,0,27.76-38.38,27.77H617.51Zm31.77,37.41q18.94,0,19-13.88a9.77,9.77,0,0,0-5.06-8.91q-5-3-18.22-3H632.21v25.81Zm-1.3,43q14.53,0,21-4.08t6.46-13q0-16.24-23.53-16.25H632.21v33.32Z" transform="translate(79.89 69.21)"/><path class="cls-3" d="M1030.92,2904.83v15.6h-1.47a51.58,51.58,0,0,0-32.1-10.78q-15.2,0-23.93,9.23t-8.66,25.24q0,16.43,8.82,25.48t24.18,9q18.54,0,31.53-10.05h1.63v14.21a68.17,68.17,0,0,1-33.89,8.5q-22.47,0-35.7-12.82t-13.15-34.31q0-21.24,13.4-34.3T997,2896.75a73.86,73.86,0,0,1,33.89,8.08Z" transform="translate(79.89 69.21)"/><path class="cls-3" d="M1285.55,2991.25V2900h27.85q27.94,0,42.23,11.85t14.38,33.89q0,22.3-15.6,33.9t-40.51,11.6Zm15.36-78.58v66.16h11.43q19.77,0,30.47-8.33t10.78-24.91q0-32.93-40.51-32.92Z" transform="translate(79.89 69.21)"/><path class="cls-3" d="M1692.55,2991.25h-67.38V2900h67.38v12.26h-52v23.27h50.32v11.68h-50.32v31.86h52Z" transform="translate(79.89 69.21)"/><path class="cls-3" d="M2025.31,2912.27h-49v23.93H2019v12.09H1976.3v43H1961V2900h64.28Z" transform="translate(79.89 69.21)"/><path class="cls-3" d="M2372.81,2982.51a76.9,76.9,0,0,1-36.43,8.74q-23.94,0-38-12.74t-14.05-34.8q0-21.24,13.72-34.22t36.68-13a85.92,85.92,0,0,1,36.34,8v13.8h-1.47a71.09,71.09,0,0,0-35.28-9.64q-16.17,0-25.24,9.23t-9,25.48q0,17.41,9.07,26.88t26.38,9.39q14.46,0,23.85-5v-20.34H2332.7v-11.27h40.11Z" transform="translate(79.89 69.21)"/><path class="cls-3" d="M2698.46,2991.25h-15.52V2948h-45.25v43.21H2622V2900h15.69v34.88h45.25V2900h15.52Z" transform="translate(79.89 69.21)"/></g></g></svg>