<svg xmlns="http://www.w3.org/2000/svg" viewBox="0 0 179.75 257.26"><defs><style>.cls-1{fill:#5c5c5c;}.cls-2,.cls-3{fill:none;}.cls-2{stroke:#5c5c5c;stroke-linecap:square;stroke-linejoin:round;stroke-width:20.3px;}.cls-3{stroke:#fff;stroke-linecap:round;stroke-width:11.3px;}</style></defs><title>Asset 16</title><g id="Layer_2" data-name="Layer 2"><g id="Layer_1-2" data-name="Layer 1"><path class="cls-1" d="M89.87,35.65a27.74,27.74,0,0,0-22.31,44.2,44.8,44.8,0,0,0-6.06,73.88c-20.8,7.33-51.35,38.46-51.35,93.38H169.6c0-54.92-30.55-86.05-51.34-93.38a44.81,44.81,0,0,0-6.07-73.88,27.73,27.73,0,0,0-22.32-44.2Z"/><path class="cls-2" d="M89.87,35.65a27.74,27.74,0,0,0-22.31,44.2,44.8,44.8,0,0,0-6.06,73.88c-20.8,7.33-51.35,38.46-51.35,93.38H169.6c0-54.92-30.55-86.05-51.34-93.38a44.81,44.81,0,0,0-6.07-73.88,27.73,27.73,0,0,0-22.32-44.2Z"/><path d="M89.87,5.65a27.74,27.74,0,0,0-22.31,44.2,44.8,44.8,0,0,0-6.06,73.88c-20.8,7.33-51.35,38.46-51.35,93.38H169.6c0-54.92-30.56-86.05-51.34-93.38a44.81,44.81,0,0,0-6.07-73.88A27.73,27.73,0,0,0,89.87,5.65Z"/><path class="cls-3" d="M89.87,5.65a27.74,27.74,0,0,0-22.31,44.2,44.8,44.8,0,0,0-6.06,73.88c-20.8,7.33-51.35,38.46-51.35,93.38H169.6c0-54.92-30.56-86.05-51.34-93.38a44.81,44.81,0,0,0-6.07-73.88A27.73,27.73,0,0,0,89.87,5.65Z"/></g></g></svg>