<svg xmlns="http://www.w3.org/2000/svg" viewBox="0 0 171.35 250.07"><defs><style>.cls-1{fill:#5c5c5c;}.cls-2,.cls-4{fill:none;stroke-linecap:round;}.cls-2{stroke:#5c5c5c;stroke-linejoin:round;stroke-width:11.9px;}.cls-3{fill:#fff;}.cls-4{stroke:#000;stroke-width:11.3px;}</style></defs><title>Asset 10</title><g id="Layer_2" data-name="Layer 2"><g id="Layer_1-2" data-name="Layer 1"><path class="cls-1" d="M85.67,32.65c-22-.49-35.78,26.32-22.31,44.2-29,16.69-29,55.64-6.07,73.88C36.51,158.07,6,189.19,6,244.12H165.39c0-54.93-30.55-86.05-51.34-93.39,26.06-21.33,19.39-59.59-6.06-73.88,13.68-18.61-.51-44.27-22.32-44.2Z"/><path class="cls-2" d="M85.67,32.65c-22-.49-35.78,26.32-22.31,44.2-29,16.69-29,55.64-6.07,73.88C36.51,158.07,6,189.19,6,244.12H165.39c0-54.93-30.55-86.05-51.34-93.39,26.06-21.33,19.39-59.59-6.06-73.88,13.68-18.61-.51-44.27-22.32-44.2Z"/><path class="cls-3" d="M85.67,5.65a27.73,27.73,0,0,0-22.31,44.2,44.82,44.82,0,0,0-6.07,73.89C36.51,131.07,6,162.19,6,217.12H165.39c0-54.93-30.55-86.05-51.34-93.38A44.81,44.81,0,0,0,108,49.85,27.74,27.74,0,0,0,85.67,5.65Z"/><path class="cls-4" d="M85.67,5.65a27.73,27.73,0,0,0-22.31,44.2,44.82,44.82,0,0,0-6.07,73.89C36.51,131.07,6,162.19,6,217.12H165.39c0-54.93-30.55-86.05-51.34-93.38A44.81,44.81,0,0,0,108,49.85,27.74,27.74,0,0,0,85.67,5.65Z"/></g></g></svg>