<svg xmlns="http://www.w3.org/2000/svg" viewBox="0 0 289.63 290.14"><defs><style>.cls-1{fill:#5c5c5c;}.cls-2,.cls-4,.cls-5,.cls-6,.cls-7,.cls-8{fill:none;stroke-linejoin:round;}.cls-2{stroke:#5c5c5c;stroke-linecap:square;stroke-width:20.3px;}.cls-3{fill:#fff;}.cls-4,.cls-5,.cls-8{stroke:#fff;}.cls-4,.cls-6,.cls-8{stroke-linecap:round;}.cls-4{stroke-width:0.51px;}.cls-5{stroke-width:2.26px;}.cls-6,.cls-7{stroke:#000;}.cls-6,.cls-7,.cls-8{stroke-width:2.26px;}</style></defs><title>Asset 15</title><g id="Layer_2" data-name="Layer 2"><g id="Layer_1-2" data-name="Layer 1"><path class="cls-1" d="M144.9,30.26a19.85,19.85,0,0,0-7.06,38.41l-15.58,77.12L92.81,75.08a19.84,19.84,0,1,0-11.82.5l-.41,75.82L43.84,95.52A19.85,19.85,0,1,0,30,101.14a19.56,19.56,0,0,0,3.53-.32l8.12,71.49c0,15.57,9.4,17.28,17.19,32.85,7.78,11.68,10.06,6.08,6.17,25.54-11.68,7.79-11.68,19.47-11.68,19.47-11.68,11.67,3.9,24,3.9,24,50.6,7.79,123.89,7.79,174.49,0,0,0,11.68-12.31,0-24,0,0,3.89-11.68-7.78-19.47-3.9-19.46.67-15.57,8.45-27.25,7.79-15.57,14.9-15.57,14.9-31.14-2.43-.43-4.89-.81-7.33-1.21l.09-.52c2.7.55,5.35,1.11,7.81,1.73l9-71.72a19.53,19.53,0,0,0,2.77.19,19.86,19.86,0,1,0-14.74-6.56l-34.24,50.9-1.53-64.34a19.85,19.85,0,1,0-13.39-1.33L167.25,147.5l-16-78.57a19.85,19.85,0,0,0-6.32-38.67ZM165,163.68c.93,0,1.84,0,2.76.06l-.11.27c-.86,0-1.73-.06-2.6-.08Zm39,2,3.65.35-.49.76c-1-.11-2.11-.2-3.16-.3Z"/><path class="cls-2" d="M144.9,30.26a19.85,19.85,0,0,0-7.06,38.41l-15.58,77.12L92.81,75.08a19.84,19.84,0,1,0-11.82.5l-.41,75.82L43.84,95.52A19.85,19.85,0,1,0,30,101.14a19.56,19.56,0,0,0,3.53-.32l8.12,71.49c0,15.57,9.4,17.28,17.19,32.85,7.78,11.68,10.06,6.08,6.17,25.54-11.68,7.79-11.68,19.47-11.68,19.47-11.68,11.67,3.9,24,3.9,24,50.6,7.79,123.89,7.79,174.49,0,0,0,11.68-12.31,0-24,0,0,3.89-11.68-7.78-19.47-3.9-19.46.67-15.57,8.45-27.25,7.79-15.57,14.9-15.57,14.9-31.14-2.43-.43-4.89-.81-7.33-1.21l.09-.52c2.7.55,5.35,1.11,7.81,1.73l9-71.72a19.53,19.53,0,0,0,2.77.19,19.86,19.86,0,1,0-14.74-6.56l-34.24,50.9-1.53-64.34a19.85,19.85,0,1,0-13.39-1.33L167.25,147.5l-16-78.57a19.85,19.85,0,0,0-6.32-38.67ZM165,163.68c.93,0,1.84,0,2.76.06l-.11.27c-.86,0-1.73-.06-2.6-.08Zm39,2,3.65.35-.49.76c-1-.11-2.11-.2-3.16-.3Z"/><path class="cls-3" d="M49.85,51.28A19.85,19.85,0,1,1,30,31.43,19.86,19.86,0,0,1,49.85,51.28Z"/><path class="cls-4" d="M49.85,51.28A19.85,19.85,0,1,1,30,31.43,19.86,19.86,0,0,1,49.85,51.28Z"/><path class="cls-3" d="M106,26.39A19.85,19.85,0,1,1,86.11,6.54,19.86,19.86,0,0,1,106,26.39Z"/><path class="cls-4" d="M106,26.39A19.85,19.85,0,1,1,86.11,6.54,19.86,19.86,0,0,1,106,26.39Z"/><path class="cls-3" d="M164.75,20.11A19.85,19.85,0,1,1,144.9.26a19.85,19.85,0,0,1,19.85,19.85Z"/><path class="cls-4" d="M164.75,20.11A19.85,19.85,0,1,1,144.9.26a19.85,19.85,0,0,1,19.85,19.85Z"/><path class="cls-3" d="M224.11,31.53a19.85,19.85,0,1,1-19.85-19.85,19.85,19.85,0,0,1,19.85,19.85Z"/><path class="cls-4" d="M224.11,31.53a19.85,19.85,0,1,1-19.85-19.85,19.85,19.85,0,0,1,19.85,19.85Z"/><path class="cls-3" d="M41.65,142.31c66.18-11.68,159.5-11.68,206.21,0L260.58,40.89l-49.94,74.23-2.28-95.88L167.25,117.5,144.47,5.85,122.26,115.79,81.15,17.06,80.58,121.4,30.65,45.45Z"/><path class="cls-5" d="M41.65,142.31c66.18-11.68,159.5-11.68,206.21,0L260.58,40.89l-49.94,74.23-2.28-95.88L167.25,117.5,144.47,5.85,122.26,115.79,81.15,17.06,80.58,121.4,30.65,45.45Z"/><path class="cls-3" d="M41.65,142.31c0,15.57,9.4,17.28,17.19,32.86,7.78,11.67,10.06,6.07,6.17,25.53-11.68,7.79-11.68,19.47-11.68,19.47-11.68,11.68,3.9,24,3.9,24,50.6,7.79,123.89,7.79,174.49,0,0,0,11.68-12.3,0-24,0,0,3.89-11.68-7.78-19.47-3.9-19.46.67-15.57,8.45-27.25,7.79-15.57,14.9-15.57,14.9-31.14-66.17-11.68-139.46-11.68-205.64,0Z"/><path class="cls-5" d="M41.65,142.31c0,15.57,9.4,17.28,17.19,32.86,7.78,11.67,10.06,6.07,6.17,25.53-11.68,7.79-11.68,19.47-11.68,19.47-11.68,11.68,3.9,24,3.9,24,50.6,7.79,123.89,7.79,174.49,0,0,0,11.68-12.3,0-24,0,0,3.89-11.68-7.78-19.47-3.9-19.46.67-15.57,8.45-27.25,7.79-15.57,14.9-15.57,14.9-31.14-66.17-11.68-139.46-11.68-205.64,0Z"/><path class="cls-3" d="M279.47,50.93a19.85,19.85,0,1,1-19.85-19.85,19.86,19.86,0,0,1,19.85,19.85Z"/><path class="cls-4" d="M279.47,50.93a19.85,19.85,0,1,1-19.85-19.85,19.86,19.86,0,0,1,19.85,19.85Z"/><path d="M44.59,51.6A13.87,13.87,0,1,1,30.72,37.73,13.87,13.87,0,0,1,44.59,51.6Z"/><path class="cls-6" d="M44.59,51.6A13.87,13.87,0,1,1,30.73,37.73,13.87,13.87,0,0,1,44.59,51.6Z"/><path d="M159,20.4A13.87,13.87,0,1,1,145.11,6.53,13.88,13.88,0,0,1,159,20.4Z"/><path class="cls-6" d="M159,20.4A13.87,13.87,0,1,1,145.11,6.53,13.88,13.88,0,0,1,159,20.4Z"/><path d="M273.36,51.6A13.87,13.87,0,1,1,259.5,37.73,13.87,13.87,0,0,1,273.36,51.6Z"/><path class="cls-6" d="M273.36,51.6A13.87,13.87,0,1,1,259.5,37.73,13.87,13.87,0,0,1,273.36,51.6Z"/><path d="M100.05,27.33A13.87,13.87,0,1,1,86.19,13.46a13.87,13.87,0,0,1,13.86,13.87Z"/><path class="cls-6" d="M100.05,27.33A13.87,13.87,0,1,1,86.19,13.46a13.87,13.87,0,0,1,13.86,13.87Z"/><path d="M217.9,30.8A13.87,13.87,0,1,1,204,16.93,13.85,13.85,0,0,1,217.9,30.8Z"/><path class="cls-6" d="M217.9,30.8A13.87,13.87,0,1,1,204,16.93,13.85,13.85,0,0,1,217.9,30.8Z"/><path d="M51.53,148.66c58.92-10.4,145.57-10.4,187.17,0l13.86-83.2L204,141.73V44.66l-38.13,93.6-20.8-104-20.8,104L86.19,41.2V141.73L37.66,65.46Z"/><path class="cls-7" d="M51.53,148.66c58.92-10.4,145.57-10.4,187.17,0l13.86-83.2L204,141.73V44.66l-38.13,93.6-20.8-104-20.79,104L86.19,41.2V141.73L37.66,65.46Z"/><path d="M51.53,148.66c0,13.87,10.39,13.87,17.32,27.73,6.94,10.4,6.94,6.94,3.47,24.27C61.92,207.59,61.92,218,61.92,218c-10.39,10.4,3.47,17.34,3.47,17.34,45.06,6.93,114.39,6.93,159.44,0,0,0,10.4-6.94,0-17.34,0,0,3.47-10.4-6.93-17.33-3.46-17.33-3.46-13.87,3.47-24.27,6.93-13.86,17.33-13.86,17.33-27.73-58.92-10.4-128.25-10.4-187.17,0Z"/><path class="cls-7" d="M51.53,148.66c0,13.87,10.39,13.87,17.32,27.73,6.94,10.4,6.94,6.94,3.47,24.27C61.92,207.59,61.92,218,61.92,218c-10.39,10.4,3.47,17.34,3.47,17.34,45.06,6.93,114.39,6.93,159.45,0,0,0,10.39-6.94,0-17.34,0,0,3.46-10.4-6.94-17.33-3.46-17.33-3.46-13.87,3.47-24.27,6.93-13.86,17.33-13.86,17.33-27.73-58.92-10.4-128.25-10.4-187.17,0Z"/><path class="cls-8" d="M68.85,176.39c24.27-6.93,128.25-6.93,152.52,0m-149,24.27c41.6-6.93,104-6.93,145.58,0M61.92,218c34.66-6.93,128.25-6.93,162.92,0"/></g></g></svg>