<svg xmlns="http://www.w3.org/2000/svg" viewBox="0 0 289.71 290.45"><defs><style>.cls-1{fill:#5c5c5c;}.cls-2,.cls-4,.cls-5,.cls-6,.cls-7,.cls-8{fill:none;stroke-linejoin:round;}.cls-2{stroke:#5c5c5c;stroke-width:11.9px;}.cls-2,.cls-5,.cls-6,.cls-8{stroke-linecap:round;}.cls-3{fill:#fff;}.cls-4,.cls-5{stroke:#fff;}.cls-4{stroke-width:2.26px;}.cls-5{stroke-width:0.43px;}.cls-6,.cls-7,.cls-8{stroke:#000;}.cls-6{stroke-width:3.68px;}.cls-7,.cls-8{stroke-width:11.3px;}</style></defs><title>Asset 7</title><g id="Layer_2" data-name="Layer 2"><g id="Layer_1-2" data-name="Layer 1"><path class="cls-1" d="M144.24,27.21c-25.13.44-31.71,32.51-12.32,44.28-6.78,24.05-11.67,57.94-11.67,57.94s-8.08-31.6-18.08-53.95c34.2-63.81-79.58-41.74-27.59,4.23-2.14,23.68.29,55,.29,55S62.56,112,50.33,94.57C61.6,75.09,42,52.16,21,60.27c-24.56,10-16.56,43.13,5.79,45.84C29,128.36,34,154.8,37,169.48l-.17,0c-1.3,38.86,30.24,37,21.62,58.41C37.3,244,45.49,273,49.88,278.19c55.52,8.25,127.66,8.28,185.74.86,7-8.1,8.61-36.31-4.54-50-1.45-8.82.13-13.65,3.08-16.59,24.39-25.56,22.09-73.53,29.62-106.44,62.5-34.29-43.12-78.59-25.95-11.88-12.27,17.79-24.05,39.18-24.05,39.18l-3.89-48.41c26.51-8.41,20.7-43.89-3.76-46.72l-.06-.74-.29.71c-24.38-1.81-34.5,28.37-17.17,42.3l-19.08,47s-5.37-32.82-12.47-56.27c20.58-13.91,9.75-43.78-12.82-43.95Z"/><path class="cls-2" d="M144.24,27.21c-25.13.44-31.71,32.51-12.32,44.28-6.78,24.05-11.67,57.94-11.67,57.94s-8.08-31.6-18.08-53.95c34.2-63.81-79.58-41.74-27.59,4.23-2.14,23.68.29,55,.29,55S62.56,112,50.33,94.57C61.6,75.09,42,52.16,21,60.27c-24.56,10-16.56,43.13,5.79,45.84C29,128.36,34,154.8,37,169.48l-.17,0c-1.3,38.86,30.24,37,21.62,58.41C37.3,244,45.49,273,49.88,278.19c55.52,8.25,127.66,8.28,185.74.86,7-8.1,8.61-36.31-4.54-50-1.45-8.82.13-13.65,3.08-16.59,24.39-25.56,22.09-73.53,29.62-106.44,62.5-34.29-43.12-78.59-25.95-11.88-12.27,17.79-24.05,39.18-24.05,39.18l-3.89-48.41c26.51-8.41,20.7-43.89-3.76-46.72l-.06-.74-.29.71c-24.38-1.81-34.5,28.37-17.17,42.3l-19.08,47s-5.37-32.82-12.47-56.27c20.58-13.91,9.75-43.78-12.82-43.95Z"/><path class="cls-3" d="M39.37,154.21c66.17-11.68,162.91-6.83,209.62,4.86,0,0,23.23-100.66,14.43-113.85s-49.64,61.1-49.64,61.1l-7.71-95.87-36.54,90s-13-79.9-25.35-79.4-23.92,81.4-23.92,81.4S100.77,26.06,84.85,26.82c-16.19.76-10,80.93-10,80.93S37,37.6,28.08,49.22s11.29,105,11.29,105Z"/><path class="cls-4" d="M39.37,154.21c66.17-11.68,162.91-6.83,209.62,4.86,0,0,23.23-100.66,14.43-113.85s-49.64,61.1-49.64,61.1l-7.71-95.87-36.54,90s-13-79.9-25.35-79.4-23.92,81.4-23.92,81.4S100.77,26.06,84.85,26.82c-16.19.76-10,80.93-10,80.93S37,37.6,28.08,49.22s11.29,105,11.29,105Z"/><path class="cls-3" d="M36.8,142.5c0,16.49,2.88,25.15,16.56,39.07,4,6.09,9.91,7.29,5.06,19.34-12.8,8.24-13.09,25.18-13.09,25.18-4,11.79,4.55,25.1,4.55,25.1,55.52,8.25,127.66,8.28,185.74.86,0,0,7.68-10.18,4.85-22.54,0,0,.56-18.93-9.39-27.46-2.28-15.19,2.45-14.49,8.42-22.86,9.11-13.92,12.06-16.49,12.06-33C179,133.85,109.4,130.14,36.8,142.5Z"/><path class="cls-4" d="M36.8,142.5c0,16.49,2.88,25.15,16.56,39.07,4,6.09,9.91,7.29,5.06,19.34-12.8,8.24-13.09,25.18-13.09,25.18-4,11.79,4.55,25.1,4.55,25.1,55.52,8.25,127.66,8.28,185.74.86,0,0,7.68-10.18,4.85-22.54,0,0,.56-18.93-9.39-27.46-2.28-15.19,2.45-14.49,8.42-22.86,9.11-13.92,12.06-16.49,12.06-33C179,133.85,109.4,130.14,36.8,142.5Z"/><path class="cls-3" d="M282.61,55.7a23.85,23.85,0,1,1-23.85-23.85A23.85,23.85,0,0,1,282.61,55.7Z"/><path class="cls-5" d="M282.61,55.7a23.85,23.85,0,1,1-23.85-23.85A23.85,23.85,0,0,1,282.61,55.7Z"/><path class="cls-3" d="M53.64,55.46A23.85,23.85,0,1,1,29.79,31.61,23.85,23.85,0,0,1,53.64,55.46Z"/><path class="cls-5" d="M53.64,55.46A23.85,23.85,0,1,1,29.79,31.61,23.85,23.85,0,0,1,53.64,55.46Z"/><path class="cls-3" d="M44,55.84A13.87,13.87,0,1,1,30.15,42,13.86,13.86,0,0,1,44,55.84Z"/><path class="cls-6" d="M44,55.84A13.87,13.87,0,1,1,30.15,42,13.86,13.86,0,0,1,44,55.84Z"/><path class="cls-3" d="M168.08,24.06A23.85,23.85,0,1,1,144.24.21a23.85,23.85,0,0,1,23.84,23.85Z"/><path class="cls-5" d="M168.08,24.06A23.85,23.85,0,1,1,144.24.21a23.85,23.85,0,0,1,23.84,23.85Z"/><path class="cls-3" d="M158.4,24.64a13.87,13.87,0,1,1-13.87-13.87A13.87,13.87,0,0,1,158.4,24.64Z"/><path class="cls-6" d="M158.4,24.64a13.87,13.87,0,1,1-13.87-13.87A13.87,13.87,0,0,1,158.4,24.64Z"/><path class="cls-3" d="M272.78,55.84A13.87,13.87,0,1,1,258.92,42a13.86,13.86,0,0,1,13.86,13.86Z"/><path class="cls-6" d="M272.78,55.84A13.87,13.87,0,1,1,258.92,42a13.86,13.86,0,0,1,13.86,13.86Z"/><path class="cls-3" d="M109.29,31.48A23.85,23.85,0,1,1,85.44,7.63a23.85,23.85,0,0,1,23.85,23.85Z"/><path class="cls-5" d="M109.29,31.48A23.85,23.85,0,1,1,85.44,7.63a23.85,23.85,0,0,1,23.85,23.85Z"/><path class="cls-3" d="M99.47,31.57A13.87,13.87,0,1,1,85.61,17.71,13.87,13.87,0,0,1,99.47,31.57Z"/><path class="cls-6" d="M99.47,31.57A13.87,13.87,0,1,1,85.61,17.71,13.87,13.87,0,0,1,99.47,31.57Z"/><path class="cls-3" d="M227.44,34.91a23.85,23.85,0,1,1-23.85-23.85,23.85,23.85,0,0,1,23.85,23.85Z"/><path class="cls-5" d="M227.44,34.91a23.85,23.85,0,1,1-23.85-23.85,23.85,23.85,0,0,1,23.85,23.85Z"/><path class="cls-3" d="M217.32,35a13.87,13.87,0,1,1-13.86-13.86A13.86,13.86,0,0,1,217.32,35Z"/><path class="cls-6" d="M217.32,35a13.87,13.87,0,1,1-13.86-13.86A13.86,13.86,0,0,1,217.32,35Z"/><path class="cls-3" d="M51,152.91c58.92-10.4,145.58-10.4,187.17,0L252,69.71,203.46,146V48.91l-38.13,93.6-20.8-104-20.79,104L85.61,45.44V146L37.08,69.71Z"/><path class="cls-7" d="M51,152.91c58.92-10.4,145.58-10.4,187.17,0L252,69.71,203.46,146V48.91l-38.13,93.6-20.8-104-20.79,104L85.61,45.44V146L37.08,69.71Z"/><path class="cls-3" d="M51,152.91c0,13.86,10.4,13.86,17.33,27.73,6.93,10.4,6.93,6.93,3.46,24.27-10.4,6.93-10.4,17.33-10.4,17.33-10.4,10.4,3.47,17.33,3.47,17.33,45.06,6.93,114.38,6.93,159.45,0,0,0,10.39-6.93,0-17.33,0,0,3.46-10.4-6.94-17.33-3.46-17.34-3.46-13.87,3.47-24.27,6.93-13.87,17.33-13.87,17.33-27.73-58.92-10.4-128.25-10.4-187.17,0Z"/><path class="cls-7" d="M51,152.91c0,13.86,10.4,13.86,17.33,27.73,6.93,10.4,6.93,6.93,3.46,24.27-10.4,6.93-10.4,17.33-10.4,17.33-10.4,10.4,3.47,17.33,3.47,17.33,45.06,6.93,114.38,6.93,159.45,0,0,0,10.39-6.93,0-17.33,0,0,3.46-10.4-6.94-17.33-3.46-17.34-3.46-13.87,3.47-24.27,6.93-13.87,17.33-13.87,17.33-27.73-58.92-10.4-128.25-10.4-187.17,0Z"/><path class="cls-8" d="M68.28,180.64c24.26-6.93,128.25-6.93,152.51,0m-149,24.27c41.6-6.94,104-6.94,145.58,0m-156,17.33c34.67-6.93,128.25-6.93,162.92,0"/></g></g></svg>