<svg xmlns="http://www.w3.org/2000/svg" viewBox="0 0 215.96 263.13"><defs><style>.cls-1{fill:#5c5c5c;}.cls-2,.cls-3,.cls-4,.cls-5,.cls-6,.cls-7,.cls-8,.cls-9{fill:none;}.cls-2{stroke:#5c5c5c;stroke-linecap:square;stroke-width:20.3px;}.cls-2,.cls-3,.cls-4,.cls-6{stroke-linejoin:round;}.cls-3,.cls-4,.cls-5,.cls-8,.cls-9{stroke:#fff;}.cls-3,.cls-5{stroke-width:22.6px;}.cls-4{stroke-width:11.3px;}.cls-6,.cls-7{stroke:#000;stroke-width:3.39px;}.cls-8,.cls-9{stroke-linecap:round;}.cls-8{stroke-width:9.04px;}.cls-9{stroke-width:2.26px;}</style></defs><title>Asset 11</title><g id="Layer_2" data-name="Layer 2"><g id="Layer_1-2" data-name="Layer 1"><path class="cls-1" d="M25.71,41.3V74.63h2.47v4.23H25.71L46.78,95.55V188H45.16L33.63,206.24h-.05v24.81H11.3V253H204.66V231.05h-23V206.24h-1v-2h-1.31L169.09,188h-1.61V96.36l22.6-17.89h-2.45V74.63h2.12V41.3H157.2V55.93H129.88V41.3H88.82V55.93H57.14V41.3Z"/><path class="cls-2" d="M25.71,41.3V74.63h2.47v4.23H25.71L46.78,95.55V188H45.16L33.63,206.24h-.05v24.81H11.3V253H204.66V231.05h-23V206.24h-1v-2h-1.31L169.09,188h-1.61V96.36l22.6-17.89h-2.45V74.63h2.12V41.3H157.2V55.93H129.88V41.3H88.82V55.93H57.14V41.3Z"/><rect class="cls-3" x="11.3" y="201.05" width="193.35" height="21.93"/><path class="cls-4" d="M33.63,176.24,45.16,158H169.09l11.54,18.28Z"/><rect class="cls-3" x="33.58" y="176.24" width="148.08" height="29.25"/><rect class="cls-5" x="46.78" y="62.91" width="120.7" height="95.05"/><path class="cls-3" d="M48.8,67.15,25.72,48.87l164.36-.4L167,66.75ZM25.72,44.63V11.3H57.14V25.93H88.82V11.3h41.06V25.93H157.2V11.3h32.55V44.63Z"/><rect x="14.32" y="202.02" width="187.18" height="20.8"/><rect class="cls-6" x="14.32" y="202.02" width="187.18" height="20.8"/><path d="M38.58,174.28,49,157H166.84l10.39,17.33Z"/><path class="cls-6" d="M38.58,174.28,49,157H166.84l10.39,17.33Z"/><rect x="35.12" y="174.28" width="145.58" height="27.73"/><rect class="cls-6" x="35.12" y="174.28" width="145.58" height="27.73"/><rect x="48.98" y="66.82" width="117.85" height="90.13"/><rect class="cls-7" x="48.98" y="66.82" width="117.85" height="90.13"/><path d="M49,66.82,28.18,49.48H187.63l-20.8,17.34Z"/><path class="cls-6" d="M49,66.82,28.18,49.48H187.63l-20.8,17.34Z"/><path d="M28.18,49.48V14.82H55.91V28.68H90.58V14.82h34.66V28.68H159.9V14.82h27.73V49.48Z"/><path class="cls-6" d="M28.18,49.48V14.82H55.91V28.68H90.58V14.82h34.66V28.68H159.9V14.82h27.73V49.48Z"/><path class="cls-8" d="M35.12,195.32H180.7M42.05,168.39H173.77"/><path class="cls-9" d="M49,157H166.83M49,66.82H166.83"/><line class="cls-8" x1="28.18" y1="49.48" x2="187.63" y2="49.48"/></g></g></svg>