<svg xmlns="http://www.w3.org/2000/svg" viewBox="0 0 199.08 246.6"><defs><style>.cls-1{fill:#5c5c5c;}.cls-2,.cls-4,.cls-5,.cls-6,.cls-7{fill:none;}.cls-2{stroke:#5c5c5c;stroke-width:11.9px;}.cls-2,.cls-5,.cls-7{stroke-linecap:round;}.cls-2,.cls-4,.cls-5{stroke-linejoin:round;}.cls-3{fill:#fff;}.cls-4,.cls-5,.cls-6,.cls-7{stroke:#000;stroke-width:11.3px;}</style></defs><title>Asset 3</title><g id="Layer_2" data-name="Layer 2"><g id="Layer_1-2" data-name="Layer 1"><path class="cls-1" d="M19.82,32.65V67.31h0l20.8,20.8h0v86.67L30.22,192.11H26.75v27.74H6v20.8H193.13v-20.8h-20.8V192.11h-3.47l-10.39-17.33V88.11h0l20.8-20.8h0V32.65H151.53V46.52H116.87V32.65H82.21V46.52H47.54V32.65Z"/><path class="cls-2" d="M19.82,32.65V67.31h0l20.8,20.8h0v86.67L30.22,192.11H26.75v27.74H6v20.8H193.13v-20.8h-20.8V192.11h-3.47l-10.39-17.33V88.11h0l20.8-20.8h0V32.65H151.53V46.52H116.87V32.65H82.21V46.52H47.54V32.65Z"/><rect class="cls-3" x="5.95" y="192.85" width="187.18" height="20.8"/><rect class="cls-4" x="5.95" y="192.85" width="187.18" height="20.8"/><rect class="cls-3" x="26.75" y="165.11" width="145.58" height="27.73"/><rect class="cls-4" x="26.75" y="165.11" width="145.58" height="27.73"/><polyline class="cls-3" points="19.82 40.31 19.82 5.65 47.55 5.65 47.55 19.52 82.21 19.52 82.21 5.65 116.87 5.65 116.87 19.52 151.53 19.52 151.53 5.65 179.26 5.65 179.26 40.31"/><polyline class="cls-4" points="19.82 40.31 19.82 5.65 47.55 5.65 47.55 19.52 82.21 19.52 82.21 5.65 116.87 5.65 116.87 19.52 151.53 19.52 151.53 5.65 179.26 5.65 179.26 40.31"/><polyline class="cls-3" points="179.25 40.31 158.46 61.11 40.61 61.11 19.81 40.31"/><polyline class="cls-5" points="179.25 40.31 158.46 61.11 40.61 61.11 19.81 40.31"/><polyline class="cls-3" points="158.47 61.11 158.47 147.78 40.62 147.78 40.62 61.11"/><polyline class="cls-6" points="158.47 61.11 158.47 147.78 40.62 147.78 40.62 61.11"/><polyline class="cls-3" points="158.47 147.78 168.87 165.11 30.22 165.11 40.62 147.78"/><polyline class="cls-5" points="158.47 147.78 168.87 165.11 30.22 165.11 40.62 147.78"/><line class="cls-7" x1="19.82" y1="40.31" x2="179.26" y2="40.31"/></g></g></svg>